<svg width="160" height="163" viewBox="0 0 160 163" fill="none" xmlns="http://www.w3.org/2000/svg">
<path d="M90.0889 82.7478L108.05 55.8066L137.557 43.619C137.557 43.619 142.047 110.972 133.066 122.518C124.086 134.064 47.1113 162.93 47.1113 162.93C47.1113 162.93 45.6076 152.666 53.305 141.762C61.0025 130.857 116.809 107.765 116.809 107.765L117.671 70.5601L90.0889 82.7478Z" fill="#1D2DD9"/>
<path d="M30.4335 59.0139C36.2066 53.8823 160.008 0 160.008 0C160.008 0 160.008 10.2633 154.876 19.8851C142.688 30.7899 77.2598 60.9383 77.2598 60.9383V100.067L108.05 85.955L93.2468 109.047C93.2468 109.047 54.081 133.423 49.6772 128.933C45.2733 124.442 48.3942 118.028 48.3942 118.028L63.7892 110.972C63.7892 110.972 67.6379 104.514 63.7892 102.761C59.9404 101.008 19.5287 121.235 19.5287 121.235C19.5287 121.235 13.1142 119.311 13.1142 112.896C13.1142 106.482 67.4112 87.238 67.4112 87.238C67.4112 87.238 68.2794 78.899 66.355 78.2576C64.4306 77.6161 55.4503 84.4748 50.9601 81.909C46.4699 79.3431 48.3942 74.2115 50.9601 72.2871C53.5259 70.3628 71.4866 60.9383 71.4866 60.9383C71.4866 60.9383 73.411 57.731 70.8452 54.5237C66.9965 52.5994 37.4895 69.2772 30.4335 69.2772C26.5848 66.0699 24.6604 64.1456 30.4335 59.0139Z" fill="#1D2DD9"/>
<path d="M30.4335 59.0139C36.2066 53.8823 160.008 0 160.008 0C160.008 0 160.008 10.2633 154.876 19.8851C142.688 30.7899 77.2598 60.9383 77.2598 60.9383V100.067L108.05 85.955L93.2468 109.047C93.2468 109.047 54.081 133.423 49.6772 128.933C45.2733 124.442 48.3942 118.028 48.3942 118.028L63.7892 110.972C63.7892 110.972 67.6379 104.514 63.7892 102.761C59.9404 101.008 19.5287 121.235 19.5287 121.235C19.5287 121.235 13.1142 119.311 13.1142 112.896C13.1142 106.482 67.4112 87.238 67.4112 87.238C67.4112 87.238 68.2794 78.899 66.355 78.2576C64.4306 77.6161 55.4503 84.4748 50.9601 81.909C46.4699 79.3431 48.3942 74.2115 50.9601 72.2871C53.5259 70.3628 71.4866 60.9383 71.4866 60.9383C71.4866 60.9383 73.411 57.731 70.8452 54.5237C66.9965 52.5994 37.4895 69.2772 30.4335 69.2772C26.5848 66.0699 24.6604 64.1456 30.4335 59.0139Z" fill="#2CEE4E"/>
<path d="M40.0553 75.6917C36.2066 75.0503 19.5287 84.0307 19.5287 84.0307C19.5287 84.0307 17.6044 85.955 17.6044 91.0867C17.6044 96.2183 24.0189 95.5769 24.0189 95.5769L39.4139 89.1623C39.4139 89.1623 44.5455 85.5033 44.5455 82.7478C44.5455 79.9922 43.9041 76.3332 40.0553 75.6917Z" fill="#1D2DD9"/>
<path d="M40.0553 75.6917C36.2066 75.0503 19.5287 84.0307 19.5287 84.0307C19.5287 84.0307 17.6044 85.955 17.6044 91.0867C17.6044 96.2183 24.0189 95.5769 24.0189 95.5769L39.4139 89.1623C39.4139 89.1623 44.5455 85.5033 44.5455 82.7478C44.5455 79.9922 43.9041 76.3332 40.0553 75.6917Z" fill="#2CEE4E"/>
<path d="M2.85091 137.271C2.85091 137.271 20.8117 125.725 26.5848 128.933C32.3579 132.14 26.5848 143.045 26.5848 143.045C26.5848 143.045 9.26545 153.308 2.85091 150.101C-3.56363 146.893 2.85091 137.271 2.85091 137.271Z" fill="#1D2DD9"/>
<path d="M2.85091 137.271C2.85091 137.271 20.8117 125.725 26.5848 128.933C32.3579 132.14 26.5848 143.045 26.5848 143.045C26.5848 143.045 9.26545 153.308 2.85091 150.101C-3.56363 146.893 2.85091 137.271 2.85091 137.271Z" fill="#2CEE4E"/>
<path d="M32.9993 135.989C27.9892 133.484 31.7164 124.442 31.7164 124.442C31.7164 124.442 39.2948 119.071 43.9041 121.877C48.5133 124.682 44.5455 134.064 44.5455 134.064C44.5455 134.064 38.0094 138.494 32.9993 135.989Z" fill="#1D2DD9"/>
<path d="M32.9993 135.989C27.9892 133.484 31.7164 124.442 31.7164 124.442C31.7164 124.442 39.2948 119.071 43.9041 121.877C48.5133 124.682 44.5455 134.064 44.5455 134.064C44.5455 134.064 38.0094 138.494 32.9993 135.989Z" fill="#2CEE4E"/>
</svg>
